{"title":"Chronicle 2012 TS XviD -MiSTERE","uid":7012088,"size":737030488,"categoryP":"video","categoryS":"movies","magnet":"?xt=urn:btih:cd27bb559fcbc55f24e083d8ff3eac36adeb85f4&amp;dn=Chronicle+2012+TS+XviD+-MiSTERE&amp;tr=udp%3A%2F%2Ftracker.openbittorrent.com%3A80&amp;tr=udp%3A%2F%2Fopen.demonii.com%3A1337&amp;tr=udp%3A%2F%2Ftracker.coppersurfer.tk%3A6969&amp;tr=udp%3A%2F%2Fexodus.desync.com%3A6969","seeders":1,"leechers":1,"uploader":"LegendET","files":3,"time":1328506229,"description":"\n\n\n\n[center]\n\n\n[img]http://img100.imageshack.us/img100/617/dnxp5.jpg[/img]\n\nsources :\nvideo - russian\naudio - own\n\nChronicle 2012 TS XviD - MiSTERE\n &lt;a href=&quot;\nhttp://www.imdb.com/title/tt1706593/&quot; rel=&quot;nofollow&quot; target=&quot;_NEW&quot;&gt;\nhttp://www.imdb.com/title/tt1706593/&lt;/a&gt;\n\nVideo\nID                               : 0\nFormat                           : MPEG-4 Visual\nFormat profile                   : Advanced Simple@L5\nFormat settings, BVOP            : 2\nFormat settings, QPel            : No\nFormat settings, GMC             : No warppoints\nFormat settings, Matrix          : Default (H.263)\nMuxing mode                      : Packed bitstream\nCodec ID                         : XVID\nCodec ID/Hint                    : XviD\nDuration                         : 1h 15mn\nBit rate                         : 1 166 Kbps\nWidth                            : 680 pixels\nHeight                           : 288 pixels\nDisplay aspect ratio             : 2.35:1\nFrame rate                       : 25.000 fps\nColor space                      : YUV\nChroma subsampling               : 4:2:0\nBit depth                        : 8 bits\nScan type                        : Progressive\nCompression mode                 : Lossy\nBits/(Pixel*Frame)               : 0.238\nStream size                      : 629 MiB (89%)\nWriting library                  : XviD 64\n\nAudio\nID                               : 1\nFormat                           : MPEG Audio\nFormat version                   : Version 1\nFormat profile                   : Layer 3\nMode                             : Joint stereo\nMode extension                   : MS Stereo\nCodec ID                         : 55\nCodec ID/Hint                    : MP3\nDuration                         : 1h 15mn\nBit rate mode                    : Constant\nBit rate                         : 128 Kbps\nChannel(s)                       : 2 channels\nSampling rate                    : 44.1 KHz\nCompression mode                 : Lossy\nStream size                      : 69.0 MiB (10%)\nAlignment                        : Split accross interleaves\nInterleave, duration             : 40 ms (1.00 video frame)\n\nvideos nice audios nicer\nwant to complain go call your mother\n\n[img]http://img838.imageshack.us/img838/9007/yelcd.png[/img]\n[img]http://img191.imageshack.us/img191/1579/s29o1.png[/img]\n[img]http://img12.imageshack.us/img12/5407/f1rpc.png[/img][/center]","torrent":{"xt":"urn:btih:cd27bb559fcbc55f24e083d8ff3eac36adeb85f4","amp;dn":"Chronicle+2012+TS+XviD+-MiSTERE","amp;tr":["udp%3A%2F%2Ftracker.openbittorrent.com%3A80","udp%3A%2F%2Fopen.demonii.com%3A1337","udp%3A%2F%2Ftracker.coppersurfer.tk%3A6969","udp%3A%2F%2Fexodus.desync.com%3A6969"],"infoHash":"cd27bb559fcbc55f24e083d8ff3eac36adeb85f4","infoHashBuffer":{"type":"Buffer","data":[205,39,187,85,159,203,197,95,36,224,131,216,255,62,172,54,173,235,133,244]},"announce":[],"urlList":[]}}